<svg width="42" height="42" viewBox="0 0 42 42" fill="none" xmlns="http://www.w3.org/2000/svg">
<circle cx="21" cy="21" r="20.5" fill="white" stroke="#DAE2FF"/>
<path d="M21 33.3334C22.4666 33.3334 23.6666 32.1334 23.6666 30.6667H18.3333C18.3333 31.374 18.6143 32.0522 19.1144 32.5523C19.6145 33.0524 20.2927 33.3334 21 33.3334ZM29 25.3334V18.6667C29 14.5734 26.8133 11.1467 23 10.24V9.33337C23 8.22671 22.1066 7.33337 21 7.33337C19.8933 7.33337 19 8.22671 19 9.33337V10.24C15.1733 11.1467 13 14.56 13 18.6667V25.3334L10.3333 28V29.3334H31.6666V28L29 25.3334Z" fill="#6D6D6D"/>
<circle cx="34" cy="6" r="4" fill="#C40000"/>
</svg>
