<svg width="124" height="33" viewBox="0 0 124 33" fill="none" xmlns="http://www.w3.org/2000/svg">
<path d="M65.7362 22.3106C65.6931 20.3684 66.071 18.442 66.8402 16.6837C67.5267 15.165 68.5905 13.8798 69.9142 12.9699C71.209 12.1029 73.1106 11.6523 74.6362 11.6714C75.8731 11.6409 77.0971 11.9476 78.1937 12.563C79.1704 13.0968 79.9946 13.9044 80.5789 14.9004V11.9917H86.4853V32.7031H80.5869V29.7685C79.9838 30.76 79.1507 31.5655 78.1696 32.1058C77.0697 32.7246 75.841 33.0316 74.5999 32.9975C73.0862 33.013 71.1971 32.5623 69.9142 31.6989C68.5936 30.7702 67.5314 29.475 66.8402 27.9505C66.0771 26.1855 65.6995 24.2564 65.7362 22.3106ZM78.8021 22.3452C78.8021 20.7611 78.3992 19.5145 77.5934 18.5968C77.2317 18.1577 76.786 17.8077 76.2867 17.5709C75.7874 17.3341 75.2464 17.216 74.7006 17.2247C74.152 17.2168 73.6081 17.3338 73.1046 17.568C72.6011 17.8023 72.1496 18.1485 71.7797 18.5839C70.9954 19.4755 70.6032 20.7134 70.6032 22.2976C70.6032 23.8818 70.9954 25.1472 71.7797 26.0937C72.1482 26.5331 72.5997 26.8832 73.1041 27.1205C73.6084 27.3579 74.1541 27.477 74.7047 27.4701C75.2508 27.4792 75.7923 27.3608 76.2918 27.1231C76.7912 26.8855 77.2367 26.5343 77.5975 26.0937C78.4032 25.1804 78.8102 23.9294 78.8102 22.3452H78.8021ZM97.162 32.9975C95.6209 33.028 94.0908 32.7125 92.6697 32.0712C91.4497 31.5287 90.379 30.66 89.5594 29.5477C88.8138 28.4932 88.37 27.2284 88.2822 25.9075H94.1202C94.1504 26.2515 94.2496 26.5843 94.411 26.8832C94.5723 27.1821 94.792 27.4399 95.0549 27.6389C95.6463 28.0993 96.3635 28.3354 97.0935 28.3098C97.6854 28.3538 98.2757 28.2028 98.7857 27.877C98.9763 27.745 99.1331 27.5636 99.2415 27.3496C99.3499 27.1356 99.4065 26.8957 99.4061 26.652C99.4088 26.3654 99.3267 26.0853 99.1718 25.852C99.0168 25.6187 98.797 25.4441 98.5439 25.3535C97.6403 24.9397 96.7029 24.6166 95.7438 24.3883C94.5726 24.1087 93.4193 23.7487 92.291 23.3105C91.3718 22.9187 90.5538 22.2952 89.9059 21.4926C89.2003 20.5358 88.8436 19.3354 88.9027 18.1164C88.8929 16.9675 89.206 15.8421 89.8011 14.8874C90.4768 13.8511 91.4111 13.0409 92.4965 12.5501C93.8413 11.9448 95.2894 11.6499 96.747 11.6844C99.1644 11.6844 101.065 12.3279 102.448 13.6148C103.145 14.2565 103.717 15.0394 104.131 15.9188C104.546 16.7981 104.796 17.7567 104.865 18.7397H99.39C99.358 18.4006 99.2617 18.0721 99.1072 17.7743C98.9527 17.4766 98.7432 17.2159 98.4916 17.0083C97.9297 16.5779 97.2463 16.3698 96.5577 16.4197C95.9979 16.3785 95.4404 16.5301 94.9662 16.8525C94.7902 16.9776 94.647 17.1492 94.5503 17.3508C94.4537 17.5524 94.4068 17.7772 94.4143 18.0039C94.4151 18.2949 94.4984 18.5788 94.6532 18.8178C94.8079 19.0567 95.0267 19.2393 95.2805 19.3413C96.1726 19.7344 97.0983 20.033 98.0444 20.233C99.2309 20.5435 100.397 20.9397 101.533 21.419C102.453 21.8083 103.263 22.4483 103.882 23.2759C104.612 24.2375 104.993 25.4508 104.954 26.691C104.965 27.8626 104.624 29.0067 103.983 29.9546C103.286 30.9575 102.341 31.7299 101.255 32.1837C99.9562 32.7493 98.5637 33.0261 97.162 32.9975ZM115.437 32.9975C113.898 33.0281 112.369 32.7126 110.949 32.0712C109.729 31.5287 108.658 30.66 107.839 29.5477C107.09 28.4952 106.646 27.2293 106.562 25.9075H112.4C112.43 26.251 112.529 26.5834 112.689 26.8822C112.85 27.1809 113.068 27.439 113.33 27.6389C113.922 28.0987 114.639 28.3347 115.369 28.3098C115.961 28.3549 116.551 28.2038 117.061 27.877C117.252 27.7452 117.409 27.564 117.519 27.35C117.628 27.136 117.685 26.896 117.685 26.652C117.687 26.365 117.604 26.0849 117.449 25.8516C117.293 25.6183 117.073 25.444 116.819 25.3535C115.917 24.9395 114.981 24.6164 114.023 24.3883C112.851 24.108 111.696 23.748 110.566 23.3105C109.648 22.9187 108.832 22.2951 108.185 21.4926C107.48 20.5358 107.123 19.3354 107.182 18.1164C107.17 16.9671 107.484 15.8411 108.08 14.8874C108.754 13.8492 109.689 13.0385 110.776 12.5501C112.119 11.9451 113.566 11.6502 115.022 11.6844C117.44 11.6844 119.34 12.3279 120.723 13.6148C121.421 14.2553 121.994 15.0379 122.409 15.9175C122.824 16.7971 123.073 17.7563 123.141 18.7397H117.669C117.636 18.4008 117.54 18.0727 117.385 17.7751C117.231 17.4775 117.022 17.2166 116.771 17.0083C116.214 16.5625 115.53 16.339 114.837 16.3764C114.277 16.3352 113.72 16.4868 113.246 16.8092C113.07 16.9343 112.926 17.1059 112.83 17.3075C112.733 17.5091 112.686 17.7339 112.694 17.9606C112.694 18.2513 112.776 18.5351 112.93 18.7741C113.084 19.0131 113.302 19.1959 113.556 19.298C114.448 19.6898 115.374 19.9884 116.32 20.1897C117.506 20.4995 118.672 20.8958 119.809 21.3757C120.728 21.7787 121.532 22.434 122.141 23.2759C122.873 24.2365 123.254 25.4505 123.213 26.691C123.225 27.8621 122.886 29.0064 122.246 29.9546C121.549 30.9575 120.604 31.7299 119.519 32.1837C118.218 32.7498 116.824 33.0266 115.421 32.9975H115.437Z" fill="#456EFF"/>
<path d="M24.3227 0.837402H30.7166C30.9341 0.837692 31.1482 0.895492 31.3401 1.0057C31.5319 1.11591 31.6955 1.27514 31.8165 1.46935L39.9993 14.6883C40.1554 14.9428 40.3839 15.1363 40.6506 15.24C40.9173 15.3438 41.2081 15.3523 41.4797 15.2643C41.7513 15.1763 41.9892 14.9964 42.158 14.7515C42.3268 14.5066 42.4175 14.2096 42.4167 13.9049V2.25712C42.4134 2.06729 42.4463 1.87876 42.5134 1.70308C42.5799 1.53918 42.6773 1.39182 42.7994 1.27024C42.9214 1.1364 43.0683 1.03169 43.2305 0.962926C43.3885 0.884287 43.56 0.841553 43.7341 0.837402L49.5962 0.837402C49.9467 0.837402 50.2829 0.986979 50.5307 1.25323C50.7785 1.51948 50.9177 1.88059 50.9177 2.25712V31.5172C50.9167 31.893 50.777 32.253 50.5293 32.5183C50.2815 32.7836 49.946 32.9326 49.5962 32.9326H43.1217C42.9043 32.9326 42.69 32.8762 42.4972 32.7681C42.3063 32.6552 42.1433 32.495 42.0218 32.3006L33.9075 19.2072C33.7494 18.9551 33.5201 18.7642 33.2534 18.6626C32.9868 18.5609 32.6968 18.5539 32.4261 18.6426C32.1555 18.7313 31.9185 18.911 31.75 19.1552C31.5815 19.3994 31.4904 19.6953 31.4902 19.9993V31.5172C31.4886 31.7027 31.4545 31.8863 31.3894 32.0582C31.3175 32.2309 31.2149 32.3868 31.0873 32.5171C30.966 32.6522 30.8209 32.7601 30.6604 32.8344C30.4999 32.9087 30.3273 32.9479 30.1525 32.9499H24.3227C24.154 32.9431 23.9883 32.9004 23.8352 32.8244C23.5128 32.6799 23.2565 32.4046 23.122 32.0582C23.0551 31.8869 23.0209 31.703 23.0213 31.5172V2.25712C23.0142 2.06819 23.043 1.87969 23.1059 1.70308C23.1739 1.54001 23.2711 1.39292 23.392 1.27024C23.5152 1.12774 23.6667 1.0168 23.8352 0.945613C23.9895 0.87554 24.1551 0.838771 24.3227 0.837402V0.837402Z" fill="#456EFF"/>
<path d="M64.4027 3.39982C62.7777 1.69154 60.3335 0.837402 57.07 0.837402H43.424C43.2466 0.837774 43.0712 0.876261 42.9079 0.950596C42.7446 1.02493 42.5968 1.13361 42.4732 1.27024C42.3462 1.40414 42.2453 1.56374 42.1761 1.73982C42.107 1.9159 42.071 2.10497 42.0703 2.29608V31.4869C42.0697 31.6769 42.1042 31.8651 42.1716 32.0408C42.2391 32.2165 42.3382 32.3761 42.4632 32.5104C42.5883 32.6448 42.7368 32.7512 42.9003 32.8237C43.0638 32.8961 43.2391 32.9332 43.4159 32.9326H49.7776C49.9555 32.9313 50.1313 32.8925 50.2952 32.8182C50.459 32.7439 50.6076 32.6357 50.7325 32.4997C50.8584 32.3647 50.9583 32.2044 51.0266 32.0279C51.094 31.8522 51.1282 31.6639 51.1273 31.4739V8.81034C51.131 8.42481 51.2757 8.0563 51.5302 7.7845C51.7832 7.51364 52.124 7.35852 52.4811 7.35166H53.6898C55.3739 7.35166 56.5221 7.70371 57.1345 8.4078C57.4419 8.74755 57.6838 9.1492 57.8463 9.58969C58.0087 10.0302 58.0886 10.5008 58.0813 10.9745C58.0813 12.0134 57.7872 12.4505 57.0862 13.1128C55.9057 14.9827 1.86138 14.1646 1.08379 14.3247C0.780721 14.3858 0.507074 14.5588 0.310235 14.8138C0.110259 15.0663 0.000307768 15.387 6.12357e-06 15.7185V19.5708C-0.000523997 19.7581 0.0333705 19.9438 0.0997469 20.1171C0.166123 20.2903 0.263677 20.4478 0.386816 20.5805C0.509955 20.7132 0.656258 20.8185 0.817342 20.8903C0.978425 20.9622 1.15112 20.9991 1.32553 20.9991H1.90973C5.53578 20.9991 56.5866 21.9168 60.1925 19.5361C63.1618 18.8566 66.8443 14.5065 66.8443 10.6889C66.8443 7.53778 66.0304 5.1081 64.4027 3.39982Z" fill="#456EFF"/>
</svg>
